<?xml version="1.0" standalone="no"?>
<!DOCTYPE svg PUBLIC "-//W3C//DTD SVG 20010904//EN"
 "http://www.w3.org/TR/2001/REC-SVG-20010904/DTD/svg10.dtd">
<svg version="1.0" xmlns="http://www.w3.org/2000/svg"
 width="512.000000pt" height="512.000000pt" viewBox="0 0 512.000000 512.000000"
 preserveAspectRatio="xMidYMid meet">

<g transform="translate(0.000000,512.000000) scale(0.100000,-0.100000)"
fill="#000000" stroke="none">
<path d="M2475 4056 c-22 -7 -200 -105 -395 -218 -195 -113 -450 -260 -567
-327 -137 -79 -224 -135 -247 -161 -68 -75 -67 -68 -64 -821 l3 -674 22 -46
c13 -25 35 -57 50 -71 28 -27 1118 -658 1183 -685 58 -25 141 -19 212 15 128
61 1105 631 1150 671 82 73 79 40 76 832 l-3 694 -28 47 c-15 26 -46 60 -70
76 -92 63 -1115 647 -1162 664 -59 20 -105 22 -160 4z m320 -635 c84 -25 198
-78 262 -122 112 -76 289 -277 266 -300 -6 -6 -95 -59 -199 -119 l-188 -109
-17 27 c-77 120 -214 193 -361 194 -132 0 -244 -47 -329 -140 -89 -98 -125
-197 -116 -329 15 -245 221 -426 467 -410 132 8 251 72 325 174 17 23 34 42
39 42 12 1 375 -209 382 -221 9 -15 -65 -116 -138 -190 -194 -196 -477 -294
-743 -259 -370 49 -670 312 -767 671 -31 117 -31 327 0 445 28 101 96 241 160
326 125 165 317 286 527 333 102 23 335 16 430 -13z m631 -608 c-4 -21 -9 -46
-12 -55 -5 -16 2 -18 54 -18 l59 0 9 53 9 52 41 3 42 3 -9 -43 c-12 -65 -12
-68 21 -68 28 0 30 -2 30 -40 0 -40 0 -40 -38 -40 l-38 0 -10 -60 c-6 -33 -8
-63 -5 -65 2 -3 19 -5 38 -5 31 0 33 -2 33 -35 0 -35 0 -35 -44 -35 -41 0 -45
-2 -50 -30 -3 -16 -9 -43 -12 -60 -5 -27 -9 -30 -45 -30 l-40 0 7 48 c3 26 7
52 8 57 0 6 -23 10 -54 10 l-55 0 -10 -55 -11 -55 -43 -3 c-37 -3 -42 -1 -38
15 3 10 9 37 12 61 7 42 7 42 -24 42 -29 0 -31 3 -31 34 0 33 2 35 37 38 l38
3 11 63 11 62 -39 0 c-39 0 -39 0 -36 38 3 36 4 37 45 40 l42 3 11 55 11 54
41 0 40 0 -6 -37z"/>
<path d="M3397 2653 c-3 -5 -8 -34 -12 -65 l-7 -58 55 0 c31 0 58 3 60 8 3 4
8 33 12 65 l7 57 -55 0 c-31 0 -58 -3 -60 -7z"/>
</g>
</svg>
