<svg xmlns="http://www.w3.org/2000/svg" xmlns:xlink="http://www.w3.org/1999/xlink" width="48" zoomAndPan="magnify" viewBox="0 0 36 36.000001" height="48" preserveAspectRatio="xMidYMid meet" version="1.0"><defs><g/></defs><path stroke-linecap="round" transform="matrix(1.459459, 0, 0, 1.459459, 0.486486, 0.00000194595)" fill="none" stroke-linejoin="round" d="M 15.000362 1.999348 L 5.999277 1.999348 C 5.734303 1.999348 5.480035 2.050201 5.233797 2.151908 C 4.990235 2.253616 4.773438 2.398147 4.586083 2.585502 C 4.398727 2.772858 4.254196 2.989654 4.152489 3.235893 C 4.050782 3.479455 3.999928 3.733723 3.999928 3.998697 L 3.999928 19.998842 C 3.999928 20.266492 4.050782 20.52076 4.152489 20.764322 C 4.254196 21.01056 4.398727 21.227357 4.586083 21.414713 C 4.773438 21.602068 4.990235 21.746599 5.233797 21.848306 C 5.480035 21.950013 5.734303 22.000867 5.999277 22.000867 L 18.000724 22.000867 C 18.265698 22.000867 18.519966 21.950013 18.766204 21.848306 C 19.009766 21.746599 19.226563 21.602068 19.413918 21.414713 C 19.601274 21.227357 19.745805 21.01056 19.847512 20.764322 C 19.949219 20.52076 20.000073 20.266492 20.000073 19.998842 L 20.000073 6.999058 Z M 15.000362 1.999348 " stroke="#000000" stroke-width="1.25" stroke-opacity="1" stroke-miterlimit="4"/><path stroke-linecap="round" transform="matrix(1.459459, 0, 0, 1.459459, 0.486486, 0.00000194595)" fill="none" stroke-linejoin="round" d="M 13.999349 1.999348 L 13.999349 6.000722 C 13.999349 6.265696 14.050203 6.519964 14.15191 6.766202 C 14.253617 7.009764 14.398149 7.226561 14.585504 7.413917 C 14.772859 7.601272 14.989656 7.745803 15.235895 7.84751 C 15.479457 7.949218 15.733725 8.000071 15.998698 8.000071 L 20.000073 8.000071 " stroke="#000000" stroke-width="1.25" stroke-opacity="1" stroke-miterlimit="4"/><g fill="#000000" fill-opacity="1"><g transform="translate(9.038006, 25.449757)"><g><path d="M 7.234375 -5.859375 C 6.953125 -6.222656 6.613281 -6.507812 6.21875 -6.71875 C 5.820312 -6.925781 5.429688 -7.03125 5.046875 -7.03125 C 4.710938 -7.03125 4.394531 -6.960938 4.09375 -6.828125 C 3.800781 -6.703125 3.546875 -6.523438 3.328125 -6.296875 C 3.109375 -6.066406 2.941406 -5.789062 2.828125 -5.46875 C 2.710938 -5.15625 2.65625 -4.816406 2.65625 -4.453125 C 2.65625 -4.085938 2.710938 -3.742188 2.828125 -3.421875 C 2.941406 -3.109375 3.109375 -2.832031 3.328125 -2.59375 C 3.546875 -2.363281 3.800781 -2.179688 4.09375 -2.046875 C 4.394531 -1.921875 4.710938 -1.859375 5.046875 -1.859375 C 5.410156 -1.859375 5.785156 -1.953125 6.171875 -2.140625 C 6.566406 -2.328125 6.921875 -2.582031 7.234375 -2.90625 L 8.578125 -1.484375 C 8.253906 -1.148438 7.890625 -0.859375 7.484375 -0.609375 C 7.085938 -0.359375 6.671875 -0.164062 6.234375 -0.03125 C 5.796875 0.09375 5.359375 0.15625 4.921875 0.15625 C 4.253906 0.15625 3.640625 0.0390625 3.078125 -0.1875 C 2.515625 -0.414062 2.023438 -0.738281 1.609375 -1.15625 C 1.203125 -1.570312 0.878906 -2.054688 0.640625 -2.609375 C 0.410156 -3.171875 0.296875 -3.773438 0.296875 -4.421875 C 0.296875 -5.066406 0.410156 -5.664062 0.640625 -6.21875 C 0.878906 -6.769531 1.210938 -7.25 1.640625 -7.65625 C 2.066406 -8.070312 2.566406 -8.390625 3.140625 -8.609375 C 3.710938 -8.835938 4.332031 -8.953125 5 -8.953125 C 5.4375 -8.953125 5.875 -8.890625 6.3125 -8.765625 C 6.75 -8.648438 7.160156 -8.476562 7.546875 -8.25 C 7.929688 -8.019531 8.269531 -7.753906 8.5625 -7.453125 Z M 7.234375 -5.859375 "/></g></g></g><g fill="#000000" fill-opacity="1"><g transform="translate(17.74087, 25.449757)"><g><path d="M -0.03125 -8.8125 L 2.453125 -8.8125 L 4.65625 -2.40625 L 6.875 -8.8125 L 9.234375 -8.8125 L 5.765625 0 L 3.390625 0 Z M -0.03125 -8.8125 "/></g></g></g></svg>